# xmcd
#
# Track frame offsets:
#	150
#	11584
#	23889
#	41182
#	53273
#	73966
#	90365
#	100220
#	112426
#	129238
#	141701
#	158269
#	171515
#	182324
#	192661
#	203538
#	214417
#	226145
#	239558
#	259675
#	272692
#	285127
#	297872
#	309367
#	322940
#
# Disc length: 4466 seconds
#
# Revision: 1
# Processed by: cddbd v1.5.2PL0 Copyright (c) Steve Scherf et al.
# Submitted via: audiograbber 1.83.01
#
DISCID=65117019
DTITLE=John Lee Hooker - Boom Boom 101 The Best Of [CD1]
DYEAR=2013
DGENRE=Blues
TTITLE0=Boom Boom
TTITLE1=Frisco Blues
TTITLE2=Blues Before Sunrise
TTITLE3=I'm Mad Again
TTITLE4=She Loves My Best Friend
TTITLE5=Process
TTITLE6=Big Soul
TTITLE7=Miss Eloise
TTITLE8=When My First Wife Left Me
TTITLE9=Drug Store Woman
TTITLE10=Five Long Years
TTITLE11=Canal Street Blues
TTITLE12=She's Mine, Keep Your Hands To Yourself
TTITLE13=I Wanna Walk
TTITLE14=Goin' To California
TTITLE15=Want Ad Blues
TTITLE16=Will The Circle Be Unbroken
TTITLE17=I'm Going Upstairs
TTITLE18=I Left My Baby
TTITLE19=I Lost A Good Girl
TTITLE20=I Got A Letter This Morning
TTITLE21=Please Don't Go
TTITLE22=What Do You Say
TTITLE23=Every Night
TTITLE24=Rock Me Mama
EXTD=
EXTT0=
EXTT1=
EXTT2=
EXTT3=
EXTT4=
EXTT5=
EXTT6=
EXTT7=
EXTT8=
EXTT9=
EXTT10=
EXTT11=
EXTT12=
EXTT13=
EXTT14=
EXTT15=
EXTT16=
EXTT17=
EXTT18=
EXTT19=
EXTT20=
EXTT21=
EXTT22=
EXTT23=
EXTT24=
PLAYORDER=
